<?xml version="1.0" standalone="no"?>
<!DOCTYPE svg PUBLIC "-//W3C//DTD SVG 20010904//EN"
 "http://www.w3.org/TR/2001/REC-SVG-20010904/DTD/svg10.dtd">
<svg version="1.0" xmlns="http://www.w3.org/2000/svg"
 width="1024.000000pt" height="360.000000pt" viewBox="0 0 1024.000000 360.000000"
 preserveAspectRatio="xMidYMid meet">

<g transform="translate(0.000000,360.000000) scale(0.100000,-0.100000)"
fill="#000000" stroke="none">
<path d="M1387 2424 c-182 -44 -302 -169 -314 -327 -8 -96 15 -163 81 -235 69
-74 123 -103 315 -168 182 -62 211 -84 211 -158 0 -38 -5 -48 -35 -74 -87 -77
-233 -68 -365 20 -84 55 -150 63 -198 23 -92 -77 -27 -204 142 -274 220 -91
478 -55 624 87 77 75 106 144 107 252 0 103 -17 140 -98 217 -61 58 -114 84
-287 144 -125 43 -194 79 -210 109 -5 10 -10 37 -10 58 0 32 6 45 30 65 66 56
177 62 266 15 136 -73 155 -80 188 -74 71 13 122 106 92 165 -21 40 -65 75
-140 110 -122 59 -273 76 -399 45z"/>
<path d="M3634 2399 c-16 -5 -41 -20 -55 -35 l-24 -26 -3 -491 c-2 -347 1
-504 9 -534 12 -45 58 -96 102 -112 16 -6 52 -11 81 -11 99 0 163 74 137 160
-7 23 -19 41 -31 45 -51 16 -50 4 -50 485 l0 448 -26 31 c-14 17 -42 35 -62
41 -42 11 -37 11 -78 -1z"/>
<path d="M4063 2399 c-17 -5 -42 -24 -55 -42 l-23 -32 0 -495 0 -496 26 -49
c33 -66 83 -95 162 -95 95 0 157 47 157 120 0 40 -31 90 -55 90 -32 0 -35 40
-35 470 0 463 -2 482 -52 513 -32 20 -86 27 -125 16z"/>
<path d="M2224 2290 c-46 -18 -64 -57 -64 -136 l0 -74 -50 0 c-41 0 -56 -5
-82 -29 -29 -26 -33 -36 -33 -79 0 -77 26 -106 101 -112 l59 -5 5 -245 c6
-257 9 -273 56 -335 80 -105 290 -116 379 -19 35 38 36 114 0 149 -20 21 -34
25 -83 25 -98 0 -97 -4 -100 229 l-3 201 86 0 c99 0 121 9 141 55 22 54 18 91
-15 127 -28 32 -32 33 -120 36 l-91 4 0 64 c0 106 -38 155 -120 153 -25 0 -55
-4 -66 -9z"/>
<path d="M2949 2076 c-178 -48 -309 -231 -309 -433 0 -193 84 -335 248 -415
l86 -43 110 1 c123 1 190 19 275 74 92 59 106 147 31 198 -43 29 -92 24 -159
-15 -47 -28 -141 -41 -205 -29 -58 11 -109 63 -130 134 l-7 22 253 0 c183 0
260 4 278 13 37 18 51 69 44 157 -12 168 -114 295 -268 336 -63 17 -185 17
-247 0z m209 -206 c18 -11 40 -36 48 -55 28 -67 32 -65 -151 -65 l-165 0 12
28 c34 77 86 112 168 112 38 0 65 -6 88 -20z"/>
<path d="M4618 2071 c-67 -22 -149 -72 -178 -109 -12 -15 -20 -40 -20 -64 0
-32 7 -47 35 -75 31 -31 40 -35 71 -30 19 3 57 20 85 36 64 40 126 54 182 42
49 -11 97 -59 97 -96 l0 -25 -84 6 c-256 20 -446 -104 -446 -291 0 -73 23
-127 79 -188 99 -107 296 -129 424 -47 l45 28 21 -28 c43 -59 142 -60 192 -3
l30 35 -3 277 c-3 275 -3 276 -30 333 -67 144 -191 218 -363 217 -49 0 -102
-7 -137 -18z m275 -518 c13 -8 -2 -73 -24 -104 -30 -42 -82 -62 -152 -57 -68
5 -97 29 -97 78 0 31 45 76 83 85 12 2 31 6 42 9 23 5 135 -3 148 -11z"/>
<path d="M5530 2075 c-312 -87 -393 -551 -134 -773 68 -58 139 -83 237 -83 84
0 163 27 206 70 l21 21 0 -37 c-1 -90 -64 -164 -155 -183 -74 -15 -122 -6
-229 42 -81 37 -91 40 -125 29 -54 -16 -76 -44 -76 -97 0 -37 6 -49 40 -84 75
-77 188 -119 325 -120 230 -1 400 125 457 338 24 86 31 763 9 815 -18 43 -68
77 -114 77 -41 0 -99 -26 -112 -51 -9 -16 -14 -16 -70 14 -51 26 -74 31 -143
34 -52 2 -102 -3 -137 -12z m235 -218 c105 -55 138 -253 58 -348 -31 -37 -95
-69 -138 -69 -65 0 -151 61 -174 123 -15 39 -15 123 -1 179 23 90 100 144 190
132 25 -3 54 -11 65 -17z"/>
<path d="M6293 2076 c-68 -31 -68 -30 -68 -431 0 -391 3 -413 54 -439 70 -36
142 -24 178 30 16 24 19 58 23 259 4 187 8 236 22 260 36 66 93 95 188 95 67
0 104 23 127 77 39 95 -47 179 -164 159 -57 -10 -139 -53 -158 -83 l-18 -27
-11 34 c-21 64 -106 96 -173 66z"/>
<path d="M7073 2075 c-73 -20 -127 -49 -179 -97 -38 -35 -44 -46 -44 -80 0
-32 7 -47 34 -74 45 -45 84 -45 156 1 69 43 149 62 201 46 44 -13 89 -62 89
-97 l0 -25 -79 7 c-297 25 -512 -165 -436 -387 19 -56 90 -130 152 -159 97
-45 249 -36 339 22 35 22 49 27 53 17 9 -27 50 -58 85 -64 43 -9 84 6 118 42
23 24 23 28 26 274 4 327 -6 378 -90 474 -68 77 -167 115 -298 114 -41 0 -99
-7 -127 -14z m251 -563 c-1 -71 -67 -122 -156 -122 -78 0 -120 42 -104 104 11
45 117 77 216 66 l45 -5 -1 -43z"/>
<path d="M7783 2070 c-64 -38 -64 -41 -61 -443 3 -344 4 -363 23 -389 54 -73
182 -66 222 13 9 17 13 91 13 249 1 280 9 312 83 349 42 21 55 23 94 15 53
-10 79 -39 93 -100 5 -21 10 -143 10 -271 l0 -231 26 -31 c48 -57 143 -60 194
-6 32 35 40 98 39 333 0 224 3 237 66 280 44 31 93 37 137 19 70 -29 72 -40
78 -332 5 -281 6 -287 62 -320 36 -21 84 -23 127 -6 58 25 61 41 61 344 0 326
-8 369 -86 455 -65 73 -128 95 -254 90 -108 -4 -165 -26 -225 -86 l-34 -35
-27 32 c-85 102 -301 122 -415 39 -39 -28 -41 -29 -55 -11 -7 10 -14 22 -14
26 0 12 -66 37 -97 37 -15 0 -42 -9 -60 -20z"/>
</g>
</svg>
